# xmcd CD database file
#
# Track frame offsets:
#	150
#	23257
#	48600
#	69760
#
# Disc length: 1397 seconds
#
# Revision: 0
# Processed by: cddbd v1.5.1PL2 Copyright (c) Steve Scherf et al.
# Submitted via: CDex 1.51
#
DISCID=24057304
DTITLE=nil - DOWN to DAWN EP
DYEAR=1900
DGENRE=Rock
TTITLE0=雨と無知
TTITLE1=DOWN
TTITLE2=君のRIOT
TTITLE3=PENGUIN JIVE
EXTD=
EXTT0=
EXTT1=
EXTT2=
EXTT3=
PLAYORDER=
